<?xml version="1.0" encoding="UTF-8" standalone="no"?>
<!-- Created with Inkscape (http://www.inkscape.org/) -->

<svg
   width="180"
   height="180"
   viewBox="0 0 47.624999 47.625001"
   version="1.1"
   id="svg5"
   inkscape:export-filename="C:\Users\Василиса\растровый.png"
   inkscape:export-xdpi="300"
   inkscape:export-ydpi="300"
   inkscape:version="1.1.2 (b8e25be833, 2022-02-05)"
   sodipodi:docname="favicon.svg"
   xmlns:inkscape="http://www.inkscape.org/namespaces/inkscape"
   xmlns:sodipodi="http://sodipodi.sourceforge.net/DTD/sodipodi-0.dtd"
   xmlns:xlink="http://www.w3.org/1999/xlink"
   xmlns="http://www.w3.org/2000/svg"
   xmlns:svg="http://www.w3.org/2000/svg">
  <sodipodi:namedview
     id="namedview7"
     pagecolor="#505050"
     bordercolor="#eeeeee"
     borderopacity="1"
     inkscape:pageshadow="0"
     inkscape:pageopacity="0"
     inkscape:pagecheckerboard="0"
     inkscape:document-units="mm"
     showgrid="false"
     units="px"
     showguides="true"
     inkscape:guide-bbox="true"
     inkscape:zoom="2"
     inkscape:cx="-8.5"
     inkscape:cy="62.5"
     inkscape:window-width="1920"
     inkscape:window-height="1017"
     inkscape:window-x="-8"
     inkscape:window-y="-8"
     inkscape:window-maximized="1"
     inkscape:current-layer="layer1">
    <sodipodi:guide
       position="62.441666,113.24167"
       orientation="0,-1"
       id="guide22337" />
    <sodipodi:guide
       position="-235.47917,-17.4625"
       orientation="0.8571673,-0.51503807"
       id="guide27036"
       inkscape:label=""
       inkscape:locked="false"
       inkscape:color="rgb(0,0,255)" />
  </sodipodi:namedview>
  <defs
     id="defs2">
    <linearGradient
       inkscape:collect="always"
       id="linearGradient41029">
      <stop
         style="stop-color:#000000;stop-opacity:0;"
         offset="0"
         id="stop41027" />
      <stop
         style="stop-color:#000000;stop-opacity:1;"
         offset="1"
         id="stop41025" />
    </linearGradient>
    <rect
       x="-192.5"
       y="85.5"
       width="216.5"
       height="153"
       id="rect39248" />
    <linearGradient
       inkscape:collect="always"
       id="linearGradient37082">
      <stop
         style="stop-color:#b01346;stop-opacity:1;"
         offset="0"
         id="stop37078" />
      <stop
         style="stop-color:#b01346;stop-opacity:0;"
         offset="1"
         id="stop37080" />
    </linearGradient>
    <linearGradient
       id="linearGradient25754"
       inkscape:swatch="solid">
      <stop
         style="stop-color:#000000;stop-opacity:1;"
         offset="0"
         id="stop25752" />
    </linearGradient>
    <rect
       x="46.940504"
       y="61.799369"
       width="248.88598"
       height="75.307428"
       id="rect2564" />
    <rect
       x="46.940502"
       y="61.79937"
       width="248.88599"
       height="75.307426"
       id="rect2564-5" />
    <rect
       x="46.940502"
       y="61.79937"
       width="248.88599"
       height="75.307426"
       id="rect2564-8" />
    <linearGradient
       inkscape:collect="always"
       xlink:href="#linearGradient37082"
       id="linearGradient37084"
       x1="56.336395"
       y1="84.562569"
       x2="91.863731"
       y2="84.562569"
       gradientUnits="userSpaceOnUse" />
    <linearGradient
       inkscape:collect="always"
       xlink:href="#linearGradient41029"
       id="linearGradient41031"
       x1="-190.94"
       y1="108.26374"
       x2="-163.82"
       y2="108.26374"
       gradientUnits="userSpaceOnUse" />
    <linearGradient
       inkscape:collect="always"
       xlink:href="#linearGradient41029"
       id="linearGradient41145"
       gradientUnits="userSpaceOnUse"
       x1="-188.63567"
       y1="108.26374"
       x2="-169.70885"
       y2="108.26374" />
    <linearGradient
       inkscape:collect="always"
       xlink:href="#linearGradient37082"
       id="linearGradient42200"
       gradientUnits="userSpaceOnUse"
       x1="56.336395"
       y1="84.562569"
       x2="91.863731"
       y2="84.562569" />
  </defs>
  <g
     inkscape:label="Слой 1"
     inkscape:groupmode="layer"
     id="layer1">
    <g
       id="g42198"
       transform="translate(0.25131551)">
      <g
         aria-label="M"
         transform="matrix(1.5090304,0,0,1.5090304,-75.84599,-103.79499)"
         id="text2562"
         style="font-weight:bold;font-size:40px;line-height:1.25;font-family:Montserrat;-inkscape-font-specification:'Montserrat Bold';white-space:pre;shape-inside:url(#rect2564);fill:url(#linearGradient37084);fill-opacity:1">
        <path
           d="m 50.261406,98.562569 v -28 h 5.36 l 11.92,19.76 h -2.84 l 11.72,-19.76 h 4.969333 l 0.08,28 h -5.729333 l -0.04,-18.68 h 1.12 l -9.36,15.72 h -2.92 l -9.56,-15.72 h 1.36 v 18.68 z"
           id="path26673"
           style="fill:url(#linearGradient42200);fill-opacity:1"
           sodipodi:nodetypes="ccccccccccccccccc" />
      </g>
      <g
         aria-label="G"
         transform="matrix(1.4614209,0,0,1.4614209,287.14038,-134.4064)"
         id="text39246"
         style="font-weight:bold;font-size:40px;line-height:1.25;font-family:Montserrat;-inkscape-font-specification:'Montserrat Bold';white-space:pre;shape-inside:url(#rect39248);fill:url(#linearGradient41031);fill-opacity:1">
        <path
           d="m -175.66,122.74374 c -2.21333,0 -4.25333,-0.34667 -6.12,-1.04 -1.84,-0.72 -3.45333,-1.73333 -4.84,-3.04 -1.36,-1.30667 -2.42667,-2.84 -3.2,-4.6 -0.74667,-1.76 -1.12,-3.69333 -1.12,-5.8 0,-2.10667 0.37333,-4.04 1.12,-5.8 0.77333,-1.76 1.85333,-3.293332 3.24,-4.599999 1.38667,-1.306667 3.01333,-2.306667 4.88,-3 1.86667,-0.72 3.92,-1.08 6.16,-1.08 2.48,0 4.70667,0.413333 6.68,1.24 2,0.826667 3.26394,2.026667 4.62394,3.6 l -3.74394,3.839999 c -1.01333,-1.06667 -2.12,-1.85333 -3.32,-2.36 -1.2,-0.533333 -2.50667,-0.799999 -3.92,-0.799999 -1.36,0 -2.6,0.213333 -3.72,0.64 -1.12,0.426669 -2.09333,1.039999 -2.92,1.839999 -0.8,0.8 -1.42667,1.74667 -1.88,2.84 -0.42667,1.09333 -0.64,2.30667 -0.64,3.64 0,1.30667 0.21333,2.50667 0.64,3.6 0.45333,1.09333 1.08,2.05333 1.88,2.88 0.82667,0.8 1.78667,1.41333 2.88,1.84 1.12,0.42667 2.34667,0.64 3.68,0.64 1.28,0 2.52,-0.2 3.72,-0.6 1.22667,-0.42667 2.41333,-1.13333 3.56,-2.12 l 3.68,4.68 c -1.52,1.14667 -3.29333,2.02667 -5.32,2.64 -2,0.61333 -4,0.92 -6,0.92 z m 5.4,-4.4 v -10.52 h 5.92 v 11.36 z"
           id="path41004"
           style="fill:url(#linearGradient41145);fill-opacity:1"
           sodipodi:nodetypes="scccscscsccccssccscccsccccsccccc" />
      </g>
    </g>
  </g>
</svg>
